<svg id="Ebene_1" data-name="Ebene 1" xmlns="http://www.w3.org/2000/svg" viewBox="0 0 558.18 123.33"><defs><style>.cls-1{fill:#fff;}.cls-2{fill:#e73636;}</style></defs><path class="cls-1" d="M105.92,55.36a2.5,2.5,0,0,1-4.6.44l-2.5-4.71a1.33,1.33,0,0,0-2.35,1.25l1,1.94a12.34,12.34,0,0,0-1.62,6.13V83.3a1.33,1.33,0,0,0,1.32,1.33h6.67V88h-9a6.18,6.18,0,0,1-6-4.83V79.88a1.33,1.33,0,0,0-2.66,0V82H59.85v-5.5a1.33,1.33,0,0,0-2.66,0v6.69a6.18,6.18,0,0,1-6,4.83H47.82V71.22A6.18,6.18,0,0,1,54,65.05h2.56a6.67,6.67,0,0,0,5.38,5.77,6.66,6.66,0,0,0,6.53,5.42h5.91A6.64,6.64,0,0,0,81,69.6V69a1.33,1.33,0,1,0-2.66,0v.56a4,4,0,0,1-4,4H68.46a4,4,0,0,1-4-4,1.34,1.34,0,0,0-1.33-1.33,4,4,0,0,1-3.91-3.22H79.68A1.32,1.32,0,0,0,81,63.72,22.29,22.29,0,0,1,99.56,41.79l6.18,11.66a2.49,2.49,0,0,1,.18,1.91M59.62,88H57.47a8.81,8.81,0,0,0,2.06-3.36h5.58A6.2,6.2,0,0,1,59.62,88m48.47-35.78L102.41,41.5h.84a1.33,1.33,0,1,0,0-2.66A24.92,24.92,0,0,0,78.39,62.39h-1.7v-29H74v29H45.53a8.84,8.84,0,0,0-8.82,8.83v9.64h2.66V71.22a6.18,6.18,0,0,1,6.16-6.17h2.15a8.83,8.83,0,0,0-2.52,6.17V88h-4.3a1.33,1.33,0,0,0-1.33,1.33v14.61l-2.43,2.42L39,108.23l2.82-2.82a1.32,1.32,0,0,0,.39-.94V90.64H48v13.28l-2.43,2.43,1.88,1.88,2.82-2.82a1.32,1.32,0,0,0,.39-.94V90.64h9a8.83,8.83,0,0,0,8.36-6h6V112.7H69.9V88.62H67.24V112.7H65v2.65H78.9V112.7H76.69V84.63h9.83a8.85,8.85,0,0,0,8.37,6h1v7.65l-2.43,2.43,1.88,1.88,2.81-2.82a1.33,1.33,0,0,0,.39-.94v-8.2h5.34v7.65l-2.43,2.43,1.88,1.88,2.82-2.82a1.33,1.33,0,0,0,.39-.94V83.3A1.34,1.34,0,0,0,105.2,82H98.53V60.41a9.8,9.8,0,0,1,.54-3.19,5.18,5.18,0,0,0,4.47,2.57,5.24,5.24,0,0,0,2.41-.6,5.18,5.18,0,0,0,2.14-7" transform="translate(-11.33 -13.37)"/><rect class="cls-1" x="55.91" y="20.06" width="2.66" height="24.98"/><path class="cls-1" d="M569.51,46.69h-4.83V92.08h4.83Zm-14.49,0h-4.83V92.08H555Zm-17.49,27H521.06c.14-4.84,2.45-11.16,8.24-11.16,6,0,8.16,6.12,8.23,11.16m-7.42,19.25a13.65,13.65,0,0,0,10.82-5.24l-2.58-2.85a10.15,10.15,0,0,1-7.83,4c-5.85,0-9.25-5-9.46-11.57h21.3v-1.5c0-9.59-4.35-17.35-13-17.35-8.31,0-13.34,7.69-13.34,17.22,0,10.07,5.31,17.28,14.08,17.28m-31,0c6.74,0,11-3.94,11-9.39,0-11.84-16.4-9.39-16.4-16.4,0-2.65,2.24-4.76,5.85-4.76A9.45,9.45,0,0,1,507.11,66l2.32-3.34a13.17,13.17,0,0,0-10-4.22c-6.53,0-10.48,4-10.48,8.85,0,11.36,16.4,8.71,16.4,16.4,0,3.13-2.51,5.31-6.33,5.31a11.36,11.36,0,0,1-8.57-4.15L488,88.27c2.72,3.13,6.47,4.62,11.09,4.62m-27,0C478.8,92.89,483,89,483,83.5c0-11.84-16.4-9.39-16.4-16.4,0-2.65,2.25-4.76,5.86-4.76A9.48,9.48,0,0,1,480.1,66l2.31-3.34a13.15,13.15,0,0,0-10-4.22c-6.53,0-10.48,4-10.48,8.85,0,11.36,16.4,8.71,16.4,16.4,0,3.13-2.52,5.31-6.33,5.31a11.33,11.33,0,0,1-8.57-4.15L461,88.27c2.72,3.13,6.46,4.62,11.09,4.62M454,92.08V59.21h-4.9V83.44c-1.43,2.72-4.43,5.1-7.69,5.1s-5.24-1.5-5.24-5.85V59.21h-4.83V84.12c0,6,2.65,8.77,8.23,8.77a12,12,0,0,0,9.53-5.37v4.56Zm-38.32,0V68.74c1.36-2.73,4.7-5.38,7.69-5.38a7.07,7.07,0,0,1,1.64.2v-5c-4,0-7.22,2.45-9.33,5.92V59.21h-4.83V92.08Zm-26.4-2.73c-4.08,0-6.53-3.26-6.53-7.34s2.45-7.29,6.53-7.29a7.9,7.9,0,0,1,7.08,4.22V85.2a8,8,0,0,1-7.08,4.15m12,2.73v-23c0-7.49-4.36-10.69-10.89-10.69a15,15,0,0,0-11.16,4.77l2.18,3.47c2.52-2.86,5.17-4,8.23-4,4.29,0,6.74,2.52,6.74,7v5.72a10.23,10.23,0,0,0-8.64-4.22c-5.38,0-9.94,3.94-9.94,10.82s4.63,11,9.94,11a10.29,10.29,0,0,0,8.64-4.35v3.54Zm-28,0L361.76,74l11.5-14.77h-5.78L353.8,77V46.69H349V92.08h4.83V83.16l4.62-5.92,9.06,14.84Z" transform="translate(-11.33 -13.37)"/><path class="cls-2" d="M72.41,13.37A61.48,61.48,0,0,0,28.82,31.45,61.44,61.44,0,0,0,11.93,63l2.55.51a58.24,58.24,0,0,1,3.37-11.08A59.42,59.42,0,0,1,30.66,33.29l3.39,3.39A54.46,54.46,0,0,0,22.28,54.27l2.4,1A51.66,51.66,0,0,1,124.07,75h10A61.73,61.73,0,0,0,72.41,13.37" transform="translate(-11.33 -13.37)"/><path class="cls-2" d="M73,136.69a61.72,61.72,0,0,0,60.48-49.63l-2.56-.51a58.22,58.22,0,0,1-3.36,11.08,59.29,59.29,0,0,1-12.82,19.14l-3.39-3.39a54.38,54.38,0,0,0,11.78-17.59l-2.41-1A51.66,51.66,0,0,1,21.33,75h-10A61.74,61.74,0,0,0,73,136.69" transform="translate(-11.33 -13.37)"/><path class="cls-2" d="M340.53,92.08V67.44c0-5.31-2.79-9-9.12-9a12,12,0,0,0-9.66,4.9V59.21h-9.87V92.08h9.87V70.57a6.05,6.05,0,0,1,5.1-3.47c2.38,0,3.81,1.23,3.81,4.22V92.08ZM290,82.82c-3.6,0-5.58-2.86-5.58-7.89s2-7.83,5.58-7.83a5.83,5.83,0,0,1,4.77,3v9.66A5.74,5.74,0,0,1,290,82.82m-1.63,22.59c7.49,0,16.2-3,16.2-15.58V59.21h-9.8v3.88a9.34,9.34,0,0,0-8.1-4.7c-7.42,0-12.32,5.86-12.32,16.54,0,11,5,16.54,12.32,16.54a9.51,9.51,0,0,0,8.1-4.77V90c0,5.44-3.61,7.14-6.87,7.14a11.5,11.5,0,0,1-8.44-3.4l-3.75,7.35c3.54,3.06,7.63,4.28,12.66,4.28m-19.53-46.2H259V92.08h9.87ZM264,56.08a5.72,5.72,0,1,0-5.71-5.72A5.7,5.7,0,0,0,264,56.08M240.49,92.89c8.1,0,13.27-4.42,13.27-10.61,0-12.59-16.33-10.14-16.33-14.09,0-1.29,1.5-2.31,3.61-2.31a12.37,12.37,0,0,1,8.23,3.26l3.81-6.6A19.69,19.69,0,0,0,241,58.39c-8.37,0-12.79,4.83-12.79,10.35,0,12.58,16.19,9.59,16.19,14,0,1.56-1.36,2.65-4.08,2.65A15.69,15.69,0,0,1,231,81.46L227,88.2c2.79,2.79,7.83,4.69,13.47,4.69M214.84,72.21H204c.2-2.66,1.5-6.06,5.45-6.06s5.3,3.4,5.44,6.06m-4.76,20.68c4.42,0,9.18-1.56,12.25-4.69L218,82.28a10.48,10.48,0,0,1-6.81,2.86A6.7,6.7,0,0,1,204,78.81h20.21V76.09c0-10.55-5.44-17.7-14.7-17.7-9.53,0-15.38,7.69-15.38,17.22,0,10.48,6.4,17.28,15.93,17.28M174,84.18c-3.61,0-5.58-3.47-5.58-8.57s2-8.51,5.58-8.51a6,6,0,0,1,4.83,3v11A6.09,6.09,0,0,1,174,84.18m14.63,7.9V46.69h-9.8v16.4a9.53,9.53,0,0,0-8.17-4.7c-7.41,0-12.31,6.6-12.31,17.22,0,11,5,17.28,12.31,17.28a9.67,9.67,0,0,0,8.17-4.69v3.88Z" transform="translate(-11.33 -13.37)"/></svg>