<svg xmlns="http://www.w3.org/2000/svg" viewBox="0 0 122.74 123.33"><defs><style>.cls-1{fill:#fff;}.cls-2{fill:#e63636;}</style></defs><g id="Ebene_2" data-name="Ebene 2"><g id="Ebene_1-2" data-name="Ebene 1"><path class="cls-1" d="M94.59,42a2.51,2.51,0,0,1-4.61.44l-2.49-4.7A1.33,1.33,0,0,0,85.14,39l1,1.94A12.28,12.28,0,0,0,84.54,47v22.9a1.33,1.33,0,0,0,1.33,1.32h6.67v3.36h-9a6.17,6.17,0,0,1-6-4.83V66.52a1.33,1.33,0,0,0-2.66,0v2.09H48.51V63.1a1.33,1.33,0,0,0-2.66,0v6.69a6.17,6.17,0,0,1-6,4.83H36.49V57.85a6.16,6.16,0,0,1,6.16-6.16h2.57a6.65,6.65,0,0,0,5.38,5.76,6.65,6.65,0,0,0,6.53,5.43H63a6.65,6.65,0,0,0,6.65-6.64v-.57a1.33,1.33,0,1,0-2.66,0v.57a4,4,0,0,1-4,4h-5.9a4,4,0,0,1-4-4,1.32,1.32,0,0,0-1.32-1.33,4,4,0,0,1-3.91-3.22H68.35a1.34,1.34,0,0,0,1.33-1.33A22.26,22.26,0,0,1,88.23,28.43l6.18,11.65A2.49,2.49,0,0,1,94.59,42M48.29,74.62H46.14a8.66,8.66,0,0,0,2.06-3.36h5.58a6.19,6.19,0,0,1-5.49,3.36M96.75,38.84l-5.67-10.7.83,0a1.33,1.33,0,0,0,0-2.66A24.92,24.92,0,0,0,67.06,49H65.35v-29H62.7V49H34.2a8.83,8.83,0,0,0-8.82,8.82V67.5H28V57.85a6.16,6.16,0,0,1,6.16-6.16h2.15a8.76,8.76,0,0,0-2.52,6.16V74.62H29.52A1.33,1.33,0,0,0,28.2,76V90.56L25.77,93l1.88,1.88,2.82-2.82a1.37,1.37,0,0,0,.38-.94V77.28h5.8V90.56L34.22,93l1.88,1.89,2.82-2.82a1.32,1.32,0,0,0,.38-.94V77.28h9a8.85,8.85,0,0,0,8.36-6H62.7V99.33H58.56V75.25H55.91V99.33H53.69V102H67.57V99.33H65.35V71.26h9.84a8.85,8.85,0,0,0,8.36,6h1v7.64l-2.43,2.43L84,89.23l2.82-2.82a1.32,1.32,0,0,0,.39-.94V77.28h5.34v7.64l-2.43,2.43L92,89.23l2.82-2.82a1.36,1.36,0,0,0,.39-.94V69.94a1.33,1.33,0,0,0-1.33-1.33H87.2V47a9.59,9.59,0,0,1,.54-3.19,5.16,5.16,0,0,0,4.46,2.57,5.06,5.06,0,0,0,2.41-.6,5.15,5.15,0,0,0,2.14-7"/><rect class="cls-1" x="55.91" y="20.06" width="2.66" height="24.98"/><path class="cls-2" d="M61.07,0A61.69,61.69,0,0,0,.6,49.63l2.55.51A58.46,58.46,0,0,1,6.52,39.06,59.21,59.21,0,0,1,19.33,19.92l3.39,3.39A54.41,54.41,0,0,0,11,40.9l2.4,1a51.66,51.66,0,0,1,99.39,19.77h10A61.73,61.73,0,0,0,61.07,0"/><path class="cls-2" d="M61.66,123.33a61.82,61.82,0,0,0,57-38.07,61,61,0,0,0,3.51-11.57l-2.55-.51a58.24,58.24,0,0,1-3.37,11.08,59,59,0,0,1-12.81,19.14L100,100a54.41,54.41,0,0,0,11.77-17.59l-2.4-1A51.66,51.66,0,0,1,10,61.66H0a61.73,61.73,0,0,0,61.66,61.67"/></g></g></svg>