<svg xmlns="http://www.w3.org/2000/svg" viewBox="0 0 558.18 123.33"><defs><style>.cls-1{fill:#fff;}</style></defs><g id="Ebene_2" data-name="Ebene 2"><g id="Ebene_1-2" data-name="Ebene 1"><path class="cls-1" d="M94.59,42a2.51,2.51,0,0,1-4.61.44l-2.49-4.7A1.33,1.33,0,0,0,85.14,39l1,1.94A12.28,12.28,0,0,0,84.54,47v22.9a1.33,1.33,0,0,0,1.33,1.32h6.67v3.36h-9a6.17,6.17,0,0,1-6-4.83V66.52a1.33,1.33,0,0,0-2.66,0v2.09H48.51V63.1a1.33,1.33,0,0,0-2.66,0v6.69a6.17,6.17,0,0,1-6,4.83H36.49V57.85a6.16,6.16,0,0,1,6.16-6.16h2.57a6.65,6.65,0,0,0,5.38,5.76,6.65,6.65,0,0,0,6.53,5.43H63a6.65,6.65,0,0,0,6.65-6.64v-.57a1.33,1.33,0,1,0-2.66,0v.57a4,4,0,0,1-4,4h-5.9a4,4,0,0,1-4-4,1.32,1.32,0,0,0-1.32-1.33,4,4,0,0,1-3.91-3.22H68.35a1.34,1.34,0,0,0,1.33-1.33A22.26,22.26,0,0,1,88.23,28.43l6.18,11.65A2.49,2.49,0,0,1,94.59,42M48.29,74.62H46.14a8.66,8.66,0,0,0,2.06-3.36h5.58a6.19,6.19,0,0,1-5.49,3.36M96.75,38.84l-5.67-10.7.83,0a1.33,1.33,0,0,0,0-2.66A24.92,24.92,0,0,0,67.06,49H65.35v-29H62.7V49H34.2a8.83,8.83,0,0,0-8.82,8.82V67.5H28V57.85a6.16,6.16,0,0,1,6.16-6.16h2.15a8.76,8.76,0,0,0-2.52,6.16V74.62H29.52A1.33,1.33,0,0,0,28.2,76V90.56L25.77,93l1.88,1.88,2.82-2.82a1.37,1.37,0,0,0,.38-.94V77.28h5.8V90.56L34.22,93l1.88,1.89,2.82-2.82a1.32,1.32,0,0,0,.38-.94V77.28h9a8.85,8.85,0,0,0,8.36-6H62.7V99.33H58.56V75.25H55.91V99.33H53.69V102H67.57V99.33H65.35V71.26h9.84a8.85,8.85,0,0,0,8.36,6h1v7.64l-2.43,2.43L84,89.23l2.82-2.82a1.32,1.32,0,0,0,.39-.94V77.28h5.34v7.64l-2.43,2.43L92,89.23l2.82-2.82a1.36,1.36,0,0,0,.39-.94V69.94a1.33,1.33,0,0,0-1.33-1.33H87.2V47a9.59,9.59,0,0,1,.54-3.19,5.16,5.16,0,0,0,4.46,2.57,5.06,5.06,0,0,0,2.41-.6,5.15,5.15,0,0,0,2.14-7"/><rect class="cls-1" x="55.91" y="20.06" width="2.66" height="24.98"/><path class="cls-1" d="M558.18,33.32h-4.83V78.71h4.83Zm-14.49,0h-4.83V78.71h4.83Zm-17.49,27H509.73c.14-4.83,2.45-11.16,8.23-11.16,6,0,8.17,6.12,8.24,11.16m-7.42,19.26a13.69,13.69,0,0,0,10.82-5.24L527,71.43a10.16,10.16,0,0,1-7.83,4c-5.85,0-9.26-5-9.46-11.57H531V62.38c0-9.6-4.36-17.35-13-17.35-8.3,0-13.34,7.68-13.34,17.21,0,10.07,5.31,17.29,14.09,17.29m-31,0c6.74,0,11-4,11-9.39,0-11.85-16.4-9.4-16.4-16.4,0-2.66,2.24-4.77,5.85-4.77a9.45,9.45,0,0,1,7.62,3.61l2.31-3.34a13.16,13.16,0,0,0-10-4.21c-6.53,0-10.48,3.94-10.48,8.84,0,11.37,16.4,8.71,16.4,16.4,0,3.13-2.52,5.31-6.33,5.31a11.33,11.33,0,0,1-8.57-4.15l-2.45,3.47c2.72,3.13,6.46,4.63,11.09,4.63m-27,0c6.74,0,11-4,11-9.39,0-11.85-16.4-9.4-16.4-16.4,0-2.66,2.24-4.77,5.85-4.77a9.45,9.45,0,0,1,7.62,3.61l2.32-3.34a13.19,13.19,0,0,0-10-4.21c-6.54,0-10.48,3.94-10.48,8.84,0,11.37,16.39,8.71,16.39,16.4,0,3.13-2.51,5.31-6.32,5.31a11.37,11.37,0,0,1-8.58-4.15l-2.45,3.47c2.72,3.13,6.47,4.63,11.09,4.63m-18.1-.82V45.84h-4.9V70.07c-1.43,2.72-4.42,5.1-7.69,5.1s-5.24-1.49-5.24-5.85V45.84H420V70.75c0,6,2.66,8.78,8.24,8.78a12,12,0,0,0,9.52-5.38v4.56Zm-38.31,0V55.37C405.68,52.65,409,50,412,50a6.45,6.45,0,0,1,1.63.21v-5c-4,0-7.21,2.45-9.32,5.92V45.84h-4.83V78.71ZM377.92,76c-4.09,0-6.54-3.27-6.54-7.35s2.45-7.28,6.54-7.28A7.87,7.87,0,0,1,385,65.58v6.26A7.94,7.94,0,0,1,377.92,76m12,2.72v-23C389.89,48.22,385.54,45,379,45a15,15,0,0,0-11.16,4.76L370,53.26c2.52-2.86,5.18-4,8.24-4,4.29,0,6.73,2.52,6.73,7V62a10.22,10.22,0,0,0-8.64-4.22c-5.37,0-9.93,4-9.93,10.82s4.63,11,9.93,11A10.25,10.25,0,0,0,385,75.17v3.54Zm-28,0-11.5-18.1,11.5-14.77h-5.79L342.46,63.67V33.32h-4.83V78.71h4.83V69.8l4.63-5.93,9.05,14.84Z"/><path class="cls-1" d="M61.07,0A61.69,61.69,0,0,0,.6,49.63l2.55.51A58.46,58.46,0,0,1,6.52,39.06,59.21,59.21,0,0,1,19.33,19.92l3.39,3.39A54.41,54.41,0,0,0,11,40.9l2.4,1a51.66,51.66,0,0,1,99.39,19.77h10A61.73,61.73,0,0,0,61.07,0"/><path class="cls-1" d="M61.66,123.33a61.82,61.82,0,0,0,57-38.07,61,61,0,0,0,3.51-11.57l-2.55-.51a58.24,58.24,0,0,1-3.37,11.08,59,59,0,0,1-12.81,19.14L100,100a54.41,54.41,0,0,0,11.77-17.59l-2.4-1A51.66,51.66,0,0,1,10,61.66H0a61.73,61.73,0,0,0,61.66,61.67"/><path class="cls-1" d="M329.2,78.71V54.08c0-5.31-2.8-9-9.12-9a12,12,0,0,0-9.67,4.9V45.84h-9.86V78.71h9.86V57.21c1-1.7,2.66-3.47,5.11-3.47S319.33,55,319.33,58V78.71Zm-50.5-9.26c-3.61,0-5.58-2.85-5.58-7.89s2-7.82,5.58-7.82a5.83,5.83,0,0,1,4.77,3v9.66a5.75,5.75,0,0,1-4.77,3.06m-1.63,22.6c7.48,0,16.19-3,16.19-15.59V45.84h-9.79v3.88a9.35,9.35,0,0,0-8.1-4.69c-7.42,0-12.32,5.85-12.32,16.53,0,11,5,16.54,12.32,16.54a9.52,9.52,0,0,0,8.1-4.77v3.34c0,5.44-3.61,7.14-6.88,7.14a11.48,11.48,0,0,1-8.44-3.4l-3.74,7.35c3.54,3.06,7.62,4.29,12.66,4.29M257.54,45.84h-9.87V78.71h9.87Zm-4.9-3.13A5.72,5.72,0,1,0,246.92,37a5.69,5.69,0,0,0,5.72,5.71M229.16,79.53c8.1,0,13.27-4.43,13.27-10.62,0-12.59-16.33-10.14-16.33-14.09,0-1.29,1.49-2.31,3.61-2.31a12.33,12.33,0,0,1,8.23,3.27l3.81-6.6A19.69,19.69,0,0,0,229.64,45c-8.37,0-12.8,4.83-12.8,10.34C216.84,68,233,65,233,69.32,233,70.88,231.68,72,229,72a15.8,15.8,0,0,1-9.33-3.87l-3.94,6.73c2.79,2.79,7.82,4.7,13.47,4.7M203.51,58.84H192.62c.2-2.65,1.49-6.06,5.44-6.06s5.31,3.41,5.45,6.06m-4.77,20.69c4.43,0,9.19-1.57,12.25-4.7l-4.35-5.92a10.48,10.48,0,0,1-6.81,2.86,6.7,6.7,0,0,1-7.14-6.33H212.9V62.72c0-10.55-5.45-17.69-14.7-17.69-9.53,0-15.38,7.68-15.38,17.21,0,10.48,6.39,17.29,15.92,17.29m-36.06-8.71c-3.61,0-5.58-3.47-5.58-8.58s2-8.5,5.58-8.5a6,6,0,0,1,4.83,3v11a6.1,6.1,0,0,1-4.83,3.07m14.63,7.89V33.32h-9.8v16.4A9.52,9.52,0,0,0,159.34,45C151.92,45,147,51.63,147,62.24c0,11,5,17.29,12.31,17.29a9.7,9.7,0,0,0,8.17-4.7v3.88Z"/></g></g></svg>